<svg xmlns="http://www.w3.org/2000/svg" viewBox="0 0 800 520" width="800" height="520">
  <defs>
    <filter id="hub-glow" x="-10%" y="-10%" width="120%" height="120%"><feDropShadow dx="0" dy="2" stdDeviation="6" flood-color="#F38020" flood-opacity="0.25"/></filter>
    <marker id="ag-blue"   markerWidth="8" markerHeight="6" refX="8" refY="3" orient="auto"><polygon points="0 0,8 3,0 6" fill="#2563eb"/></marker>
    <marker id="ag-orange" markerWidth="8" markerHeight="6" refX="8" refY="3" orient="auto"><polygon points="0 0,8 3,0 6" fill="#ea580c"/></marker>
    <marker id="ag-green"  markerWidth="8" markerHeight="6" refX="8" refY="3" orient="auto"><polygon points="0 0,8 3,0 6" fill="#059669"/></marker>
    <marker id="ag-red"    markerWidth="8" markerHeight="6" refX="8" refY="3" orient="auto"><polygon points="0 0,8 3,0 6" fill="#dc2626"/></marker>
    <marker id="ag-purple" markerWidth="8" markerHeight="6" refX="8" refY="3" orient="auto"><polygon points="0 0,8 3,0 6" fill="#7c3aed"/></marker>
  </defs>
  <rect width="800" height="520" fill="#ffffff"/>
  <text x="400" y="26" text-anchor="middle" font-size="13" font-weight="600" fill="#111827" font-family="Helvetica Neue,Helvetica,Arial,PingFang SC,Microsoft YaHei,sans-serif">AI Gateway &#35843;&#29992;&#26550;&#26500;</text>
  <rect x="300" y="42" width="200" height="44" rx="7" fill="#ffffff" stroke="#d1d5db" stroke-width="1.5"/>
  <text x="400" y="68" text-anchor="middle" dominant-baseline="middle" font-size="13" fill="#111827" font-family="Helvetica Neue,Helvetica,Arial,PingFang SC,Microsoft YaHei,sans-serif">App / Workers</text>
  <line x1="400" y1="86" x2="400" y2="104" stroke="#2563eb" stroke-width="1.8" marker-end="url(#ag-blue)"/>
  <polygon points="360,108 400,104 440,108 440,132 400,136 360,132" fill="#ffffff" stroke="#F38020" stroke-width="2"/>
  <text x="400" y="124" text-anchor="middle" dominant-baseline="middle" font-size="12" font-weight="700" fill="#ea580c" font-family="Helvetica Neue,Helvetica,Arial,PingFang SC,Microsoft YaHei,sans-serif">AI Gateway</text>
  <polygon points="180,195 230,172 280,195 230,218" fill="#f0fdf4" stroke="#059669" stroke-width="1.8"/>
  <text x="230" y="198" text-anchor="middle" dominant-baseline="middle" font-size="11" fill="#059669" font-weight="600" font-family="Helvetica Neue,Helvetica,Arial,PingFang SC,Microsoft YaHei,sans-serif">Cache?</text>
  <line x1="360" y1="120" x2="180" y2="195" stroke="#059669" stroke-width="1.5" marker-end="url(#ag-green)"/>
  <rect x="130" y="248" width="140" height="40" rx="7" fill="#f0fdf4" stroke="#059669" stroke-width="1.5"/>
  <text x="200" y="272" text-anchor="middle" dominant-baseline="middle" font-size="12" fill="#059669" font-family="Helvetica Neue,Helvetica,Arial,PingFang SC,Microsoft YaHei,sans-serif">Cached Response</text>
  <line x1="230" y1="218" x2="200" y2="248" stroke="#059669" stroke-width="1.5" marker-end="url(#ag-green)"/>
  <polygon points="520,195 570,172 620,195 570,218" fill="#fef2f2" stroke="#dc2626" stroke-width="1.8"/>
  <text x="570" y="198" text-anchor="middle" dominant-baseline="middle" font-size="11" fill="#dc2626" font-weight="600" font-family="Helvetica Neue,Helvetica,Arial,PingFang SC,Microsoft YaHei,sans-serif">Rate Limit?</text>
  <line x1="440" y1="120" x2="620" y2="195" stroke="#dc2626" stroke-width="1.5" marker-end="url(#ag-red)"/>
  <rect x="515" y="248" width="110" height="40" rx="7" fill="#fef2f2" stroke="#dc2626" stroke-width="1.5"/>
  <text x="570" y="272" text-anchor="middle" dominant-baseline="middle" font-size="12" fill="#dc2626" font-family="Helvetica Neue,Helvetica,Arial,PingFang SC,Microsoft YaHei,sans-serif">429 Reject</text>
  <line x1="570" y1="218" x2="570" y2="248" stroke="#dc2626" stroke-width="1.5" marker-end="url(#ag-red)"/>
  <rect x="300" y="248" width="200" height="42" rx="8" fill="#fff7ed" stroke="#ea580c" stroke-width="1.8"/>
  <text x="400" y="273" text-anchor="middle" dominant-baseline="middle" font-size="13" fill="#ea580c" font-weight="700" font-family="Helvetica Neue,Helvetica,Arial,PingFang SC,Microsoft YaHei,sans-serif">Provider Router</text>
  <line x1="400" y1="136" x2="400" y2="248" stroke="#ea580c" stroke-width="1.5" marker-end="url(#ag-orange)"/>
  <rect x="60" y="340" width="130" height="42" rx="7" fill="#fff7ed" stroke="#ea580c" stroke-width="1.8"/>
  <text x="125" y="365" text-anchor="middle" dominant-baseline="middle" font-size="12" fill="#ea580c" font-weight="600" font-family="Helvetica Neue,Helvetica,Arial,PingFang SC,Microsoft YaHei,sans-serif">Workers AI</text>
  <line x1="125" y1="290" x2="125" y2="340" stroke="#ea580c" stroke-width="1.5" marker-end="url(#ag-orange)"/>
  <rect x="220" y="340" width="130" height="42" rx="7" fill="#ffffff" stroke="#d1d5db" stroke-width="1.5"/>
  <text x="285" y="365" text-anchor="middle" dominant-baseline="middle" font-size="12" fill="#111827" font-family="Helvetica Neue,Helvetica,Arial,PingFang SC,Microsoft YaHei,sans-serif">OpenAI</text>
  <line x1="285" y1="290" x2="285" y2="340" stroke="#ea580c" stroke-width="1.5" marker-end="url(#ag-orange)"/>
  <rect x="380" y="340" width="130" height="42" rx="7" fill="#ffffff" stroke="#d1d5db" stroke-width="1.5"/>
  <text x="445" y="365" text-anchor="middle" dominant-baseline="middle" font-size="12" fill="#111827" font-family="Helvetica Neue,Helvetica,Arial,PingFang SC,Microsoft YaHei,sans-serif">Anthropic</text>
  <line x1="445" y1="290" x2="445" y2="340" stroke="#ea580c" stroke-width="1.5" marker-end="url(#ag-orange)"/>
  <rect x="540" y="340" width="130" height="42" rx="7" fill="#ffffff" stroke="#d1d5db" stroke-width="1.5"/>
  <text x="605" y="365" text-anchor="middle" dominant-baseline="middle" font-size="12" fill="#111827" font-family="Helvetica Neue,Helvetica,Arial,PingFang SC,Microsoft YaHei,sans-serif">Gemini</text>
  <line x1="605" y1="290" x2="605" y2="340" stroke="#ea580c" stroke-width="1.5" marker-end="url(#ag-orange)"/>
  <line x1="215" y1="361" x2="275" y2="361" stroke="#6b7280" stroke-width="1" stroke-dasharray="5,3"/>
  <line x1="375" y1="361" x2="435" y2="361" stroke="#6b7280" stroke-width="1" stroke-dasharray="5,3"/>
  <text x="400" y="355" text-anchor="middle" font-size="10" fill="#6b7280" font-family="Helvetica Neue,Helvetica,Arial,PingFang SC,Microsoft YaHei,sans-serif">Fallback Chain</text>
  <rect x="260" y="418" width="280" height="42" rx="7" fill="#ffffff" stroke="#7c3aed" stroke-width="1.5" stroke-dasharray="6,3"/>
  <text x="400" y="443" text-anchor="middle" dominant-baseline="middle" font-size="12" fill="#7c3aed" font-family="Helvetica Neue,Helvetica,Arial,PingFang SC,Microsoft YaHei,sans-serif">Logs &amp; Analytics &#8594; Dashboard</text>
  <line x1="455" y1="134" x2="540" y2="443" stroke="#7c3aed" stroke-width="1" stroke-dasharray="5,3"/>
  <line x1="540" y1="443" x2="555" y2="443" stroke="#7c3aed" stroke-width="1" marker-end="url(#ag-purple)"/>
  <line x1="60" y1="490" x2="88" y2="490" stroke="#2563eb" stroke-width="1.8" />
  <text x="94" y="490" text-anchor="start" dominant-baseline="middle" font-size="11" fill="#111827" font-family="Helvetica Neue,Helvetica,Arial,PingFang SC,Microsoft YaHei,sans-serif">Request Flow</text>
  <line x1="210" y1="490" x2="238" y2="490" stroke="#ea580c" stroke-width="1.8" />
  <text x="244" y="490" text-anchor="start" dominant-baseline="middle" font-size="11" fill="#111827" font-family="Helvetica Neue,Helvetica,Arial,PingFang SC,Microsoft YaHei,sans-serif">AI Routing</text>
  <line x1="360" y1="490" x2="388" y2="490" stroke="#059669" stroke-width="1.8" />
  <text x="394" y="490" text-anchor="start" dominant-baseline="middle" font-size="11" fill="#111827" font-family="Helvetica Neue,Helvetica,Arial,PingFang SC,Microsoft YaHei,sans-serif">Cache Hit</text>
  <line x1="490" y1="490" x2="518" y2="490" stroke="#dc2626" stroke-width="1.8" />
  <text x="524" y="490" text-anchor="start" dominant-baseline="middle" font-size="11" fill="#111827" font-family="Helvetica Neue,Helvetica,Arial,PingFang SC,Microsoft YaHei,sans-serif">Rate Limited</text>
  <line x1="620" y1="490" x2="648" y2="490" stroke="#7c3aed" stroke-width="1.8" stroke-dasharray="6,4"/>
  <text x="654" y="490" text-anchor="start" dominant-baseline="middle" font-size="11" fill="#111827" font-family="Helvetica Neue,Helvetica,Arial,PingFang SC,Microsoft YaHei,sans-serif">Logging</text>
</svg>