<svg xmlns="http://www.w3.org/2000/svg" viewBox="0 0 800 520" width="800" height="520"><rect x="0" y="0" width="800" height="520" fill="#ffffff" /><text x="400" y="26" text-anchor="middle" font-size="13" font-weight="600" fill="#111827" font-family="Helvetica Neue,Helvetica,Arial,PingFang SC,Microsoft YaHei,sans-serif">Cloudflare One Zero Trust Platform</text><defs><marker id="zt-bl" markerWidth="8" markerHeight="6" refX="8" refY="3" orient="auto"><polygon points="0 0,8 3,0 6" fill="#2563eb" /></marker><marker id="zt-or" markerWidth="8" markerHeight="6" refX="8" refY="3" orient="auto"><polygon points="0 0,8 3,0 6" fill="#ea580c" /></marker><marker id="zt-pk" markerWidth="8" markerHeight="6" refX="8" refY="3" orient="auto"><polygon points="0 0,8 3,0 6" fill="#e8b4b8" /></marker><marker id="zt-pp" markerWidth="8" markerHeight="6" refX="8" refY="3" orient="auto"><polygon points="0 0,8 3,0 6" fill="#7c3aed" /></marker><marker id="zt-gr" markerWidth="8" markerHeight="6" refX="8" refY="3" orient="auto"><polygon points="0 0,8 3,0 6" fill="#9ca3af" /></marker></defs><circle cx="400" cy="42" r="12" fill="#111827" /><path d="M386 60 Q400 52 414 60" fill="none" stroke="#111827" stroke-width="2.5" stroke-linecap="round" /><text x="400" y="78" text-anchor="middle" font-size="13" fill="#111827" font-weight="600" font-family="Helvetica Neue,Helvetica,Arial,PingFang SC,Microsoft YaHei,sans-serif">User Device</text><line x1="400" y1="82" x2="400" y2="100" stroke="#ea580c" stroke-width="2" marker-end="url(#zt-or)" /><rect x="408" y="84" width="56" height="14" rx="3" fill="#ffffff" opacity="0.9" /><text x="436" y="91" text-anchor="middle" dominant-baseline="middle" font-size="9" fill="#6b7280" font-family="Helvetica Neue,Helvetica,Arial,PingFang SC,Microsoft YaHei,sans-serif">加密隧道</text><rect x="320" y="102" width="160" height="38" rx="6" fill="#ffffff" stroke="#ea580c" stroke-width="2" /><text x="400" y="125" text-anchor="middle" dominant-baseline="middle" font-size="13" fill="#111827" font-weight="600" font-family="Helvetica Neue,Helvetica,Arial,PingFang SC,Microsoft YaHei,sans-serif">WARP Client</text><line x1="400" y1="140" x2="400" y2="165" stroke="#e8b4b8" stroke-width="2" marker-end="url(#zt-pk)" /><rect x="408" y="148" width="56" height="14" rx="3" fill="#ffffff" opacity="0.9" /><text x="436" y="155" text-anchor="middle" dominant-baseline="middle" font-size="9" fill="#6b7280" font-family="Helvetica Neue,Helvetica,Arial,PingFang SC,Microsoft YaHei,sans-serif">策略执行</text><rect x="80" y="168" width="640" height="130" rx="10" fill="none" stroke="#d1d5db" stroke-width="2" stroke-dasharray="8 4" /><text x="96" y="184" font-size="12" fill="#6b7280" font-weight="600" font-family="Helvetica Neue,Helvetica,Arial,PingFang SC,Microsoft YaHei,sans-serif">Cloudflare Edge</text><rect x="40" y="200" width="140" height="62" rx="6" fill="#ffffff" stroke="#e8b4b8" stroke-width="1.5" /><text x="120" y="224" text-anchor="middle" font-size="13" fill="#111827" font-weight="600" font-family="Helvetica Neue,Helvetica,Arial,PingFang SC,Microsoft YaHei,sans-serif">ZTNA</text><text x="120" y="244" text-anchor="middle" font-size="10" fill="#6b7280" font-family="Helvetica Neue,Helvetica,Arial,PingFang SC,Microsoft YaHei,sans-serif">入站访问控制</text><rect x="200" y="200" width="140" height="62" rx="6" fill="#ffffff" stroke="#e8b4b8" stroke-width="1.5" /><text x="320" y="224" text-anchor="middle" font-size="13" fill="#111827" font-weight="600" font-family="Helvetica Neue,Helvetica,Arial,PingFang SC,Microsoft YaHei,sans-serif">SWG</text><text x="320" y="244" text-anchor="middle" font-size="10" fill="#6b7280" font-family="Helvetica Neue,Helvetica,Arial,PingFang SC,Microsoft YaHei,sans-serif">出站 Web 策略</text><rect x="360" y="200" width="140" height="62" rx="6" fill="#ffffff" stroke="#e8b4b8" stroke-width="1.5" /><text x="520" y="224" text-anchor="middle" font-size="13" fill="#111827" font-weight="600" font-family="Helvetica Neue,Helvetica,Arial,PingFang SC,Microsoft YaHei,sans-serif">DLP</text><text x="520" y="244" text-anchor="middle" font-size="10" fill="#6b7280" font-family="Helvetica Neue,Helvetica,Arial,PingFang SC,Microsoft YaHei,sans-serif">数据防泄漏</text><line x1="392" y1="264" x2="622" y2="264" stroke="#9ca3af" stroke-width="1.5" stroke-dasharray="6 3" marker-end="url(#zt-gr)" /><rect x="440" y="246" width="60" height="14" rx="3" fill="#ffffff" opacity="0.9" /><text x="470" y="257" text-anchor="middle" font-size="9" fill="#6b7280" font-family="Helvetica Neue,Helvetica,Arial,PingFang SC,Microsoft YaHei,sans-serif">AI网关</text><rect x="622" y="240" width="170" height="50" rx="6" fill="#ffffff" stroke="#9ca3af" stroke-width="1.5" stroke-dasharray="6 3" /><text x="707" y="260" text-anchor="middle" font-size="12" fill="#111827" font-weight="600" font-family="Helvetica Neue,Helvetica,Arial,PingFang SC,Microsoft YaHei,sans-serif">External LLM</text><text x="707" y="278" text-anchor="middle" font-size="10" fill="#6b7280" font-family="Helvetica Neue,Helvetica,Arial,PingFang SC,Microsoft YaHei,sans-serif">OpenAI / Claude / Gemini</text><line x1="400" y1="298" x2="400" y2="335" stroke="#2563eb" stroke-width="2" marker-end="url(#zt-bl)" /><rect x="408" y="310" width="56" height="14" rx="3" fill="#ffffff" opacity="0.9" /><text x="436" y="321" text-anchor="middle" font-size="9" fill="#6b7280" font-family="Helvetica Neue,Helvetica,Arial,PingFang SC,Microsoft YaHei,sans-serif">安全连接</text><rect x="90" y="338" width="170" height="60" rx="6" fill="#ffffff" stroke="#c4b5fd" stroke-width="2" /><text x="175" y="362" text-anchor="middle" font-size="13" fill="#111827" font-weight="600" font-family="Helvetica Neue,Helvetica,Arial,PingFang SC,Microsoft YaHei,sans-serif">SSO / Identity</text><text x="175" y="382" text-anchor="middle" font-size="10" fill="#6b7280" font-family="Helvetica Neue,Helvetica,Arial,PingFang SC,Microsoft YaHei,sans-serif">身份认证</text><line x1="262" y1="368" x2="392" y2="368" stroke="#7c3aed" stroke-width="2" marker-end="url(#zt-pp)" marker-start="url(#zt-pp)" /><rect x="296" y="350" width="56" height="14" rx="3" fill="#ffffff" opacity="0.9" /><text x="324" y="361" text-anchor="middle" font-size="9" fill="#6b7280" font-family="Helvetica Neue,Helvetica,Arial,PingFang SC,Microsoft YaHei,sans-serif">身份验证</text><rect x="394" y="338" width="170" height="60" rx="6" fill="#ffffff" stroke="#93c5fd" stroke-width="2" /><text x="479" y="362" text-anchor="middle" font-size="13" fill="#111827" font-weight="600" font-family="Helvetica Neue,Helvetica,Arial,PingFang SC,Microsoft YaHei,sans-serif">Internal Apps</text><text x="479" y="382" text-anchor="middle" font-size="10" fill="#6b7280" font-family="Helvetica Neue,Helvetica,Arial,PingFang SC,Microsoft YaHei,sans-serif">内部应用 / AI工具</text><line x1="100" y1="468" x2="128" y2="468" stroke="#2563eb" stroke-width="2" /><circle cx="131" cy="468" r="2.5" fill="#2563eb" /><text x="138" y="468" text-anchor="start" dominant-baseline="middle" font-size="11" fill="#111827" font-family="Helvetica Neue,Helvetica,Arial,PingFang SC,Microsoft YaHei,sans-serif">用户流</text><line x1="250" y1="468" x2="278" y2="468" stroke="#e8b4b8" stroke-width="2" /><circle cx="281" cy="468" r="2.5" fill="#e8b4b8" /><text x="288" y="468" text-anchor="start" dominant-baseline="middle" font-size="11" fill="#111827" font-family="Helvetica Neue,Helvetica,Arial,PingFang SC,Microsoft YaHei,sans-serif">策略执行</text><line x1="400" y1="468" x2="428" y2="468" stroke="#7c3aed" stroke-width="2" /><circle cx="431" cy="468" r="2.5" fill="#7c3aed" /><text x="438" y="468" text-anchor="start" dominant-baseline="middle" font-size="11" fill="#111827" font-family="Helvetica Neue,Helvetica,Arial,PingFang SC,Microsoft YaHei,sans-serif">身份</text><line x1="550" y1="468" x2="578" y2="468" stroke="#9ca3af" stroke-width="2" /><circle cx="581" cy="468" r="2.5" fill="#9ca3af" /><text x="588" y="468" text-anchor="start" dominant-baseline="middle" font-size="11" fill="#111827" font-family="Helvetica Neue,Helvetica,Arial,PingFang SC,Microsoft YaHei,sans-serif">外部服务</text></svg>